<mxfile host="app.diagrams.net" modified="2023-12-22T03:41:44.349Z" agent="Mozilla/5.0 (Windows NT 10.0; Win64; x64) AppleWebKit/537.36 (KHTML, like Gecko) Chrome/120.0.0.0 Safari/537.36" etag="SiOBP5YzWh0u2nbsu3iZ" version="22.1.11" type="github">
  <diagram name="Page-1" id="paEyww2v4GBFIP7PCP6t">
    <mxGraphModel dx="1500" dy="757" grid="0" gridSize="10" guides="1" tooltips="1" connect="1" arrows="1" fold="1" page="1" pageScale="1" pageWidth="1500" pageHeight="1500" math="0" shadow="0">
      <root>
        <mxCell id="0" />
        <mxCell id="1" parent="0" />
        <mxCell id="cAQ5icKJsvc8xCWlFpYS-61" value="" style="edgeStyle=orthogonalEdgeStyle;rounded=0;orthogonalLoop=1;jettySize=auto;html=1;" edge="1" parent="1" source="cAQ5icKJsvc8xCWlFpYS-5" target="36QEOo4buygN4QM1PQPN-1">
          <mxGeometry relative="1" as="geometry" />
        </mxCell>
        <mxCell id="cAQ5icKJsvc8xCWlFpYS-5" value="" style="rounded=1;whiteSpace=wrap;html=1;shadow=0;fillColor=#f5f5f5;fontColor=#333333;strokeColor=#666666;" vertex="1" parent="1">
          <mxGeometry x="236" y="295" width="241.1" height="296" as="geometry" />
        </mxCell>
        <mxCell id="cAQ5icKJsvc8xCWlFpYS-66" value="" style="edgeStyle=orthogonalEdgeStyle;rounded=0;orthogonalLoop=1;jettySize=auto;html=1;" edge="1" parent="1" source="36QEOo4buygN4QM1PQPN-1" target="cAQ5icKJsvc8xCWlFpYS-63">
          <mxGeometry relative="1" as="geometry" />
        </mxCell>
        <mxCell id="36QEOo4buygN4QM1PQPN-1" value="" style="shape=cube;whiteSpace=wrap;html=1;boundedLbl=1;backgroundOutline=1;darkOpacity=0.05;darkOpacity2=0.1;rotation=0;fillColor=#dae8fc;strokeColor=#6c8ebf;size=29;" parent="1" vertex="1">
          <mxGeometry x="537" y="375.75" width="116" height="134.5" as="geometry" />
        </mxCell>
        <mxCell id="cAQ5icKJsvc8xCWlFpYS-4" value="" style="shape=image;verticalLabelPosition=bottom;labelBackgroundColor=default;verticalAlign=top;aspect=fixed;imageAspect=0;image=data:image/png,iVBORw0KGgoAAAANSUhEUgAAATUAAAEuCAYAAADvDoVcAAAgAElEQVR4Ae29WZgcx3Xnq/f7eB/8cOUnvd6H6/HYY2nsmft5PKZHvtLIFknL2ixRskiK4iJR3CSSIAgSCzcAJEESxL40Go1GN3rf933fGwsBYiNAgCC4mqRIkVLc75eNU4iKyq2qMquyuiO+ryoyI2M5ceLEP0+cWPJLyjrLAcsBy4FlxIEvLaO62KpYDlgOWA4oC2olIgQ33HCD+tKXvqTKy8tjo5j8N2zYEFv+t99+u1OHOMuAP9QDfulOwl9//XU9ONJrKcMsO9JCbGaBHFixoIbg679ATimVFv8rX/lKmCQlEQeQEV4EAU5/f38qrqRx85NUcdpKaIwT1JJU55VMy4oFNRpd3qwIfFBn1js+HXu5OTp7GD5IvYUfJt8kHwERiZ+PD7/z5bnQGyWomXXPp442bXQcWNGghoDLsC5I8+K5vPGj7BjRNWV+OQkYhe2o8kLwih+Wr2GoJq+kgRr8CpKZMHWzcaLngAW1G25QYuuho7o5wum8FtSucycI1Igp2poX8F3PzftKykkaqAG0FtS8262YTyyo3XCDEi3FS0gl3AvUJFw6sQmOkj/gSeeUeITjBFQlXPfNOHJPOj1f7vV0Tsban/6MaxMkJK+wACRg4xefZ5QFAODk3ixb8tJpJI4bX4S3ogmSr/Cf/IW/Jl1SNvWUtJRHGTipv9DgBGp5Ey50SxzdJ75X2W556fnJc6GLe73uUmeJJ+Xo5etxhJ8mDyT9cvctqF3rcCJEunDQ+NyLcEjnoQOII0w6LWFmHBEwBNCMS3zSEi5OOp90Nj1P8pCy9Xz1ziCdU09POvOeMN1JOqmr/sztWsr3iy9xKEto5FrAgXylg0oZQofEkTzknnjkIT94JzwR3vHMpEueEV/ykjCdN0Kn0IMv8SQdYV7t5la20KzTJOVQP3kudeKZhEs8J5IGvlJnSSvxuRee6eVJ+pXgp0v2SqixVkcEA6HBIbAIldxLNO5FgOgQxJF74phC7NYBJJ6ZN/mY6b3iSr562RJXB0XCKEfCpAxd6OnEZj0kXtiOEKbjCE8pCydpdHAgTGh1Il0DEYnjloZ4bnUg3Ksewj/JV8qCVzovJF95ju9Gg85jietVNnmadSQNYW5l6zSaZfNM+CnlEoefdUscsKCmrWcSARehwkcgxZlCKOG679V5EEQ9L9JIJzDDKQdadCf5kkZ3bvm6dTg9DeXpnYlnQkuUoCYdUjq03At/hSZo4efmvNJIHcw0XvXw4p+EC01u+brR4MZjr7Kpm9me0C1lkz8ubNlh5NDky0q6d5ekFcIBhFAXNgRbF0CeEUeclzCJMEvnxJdOImkJQ2hNZ+YpNIigS3zpADo9PHPL163DSb46jXpeUgfKCeOko/vFF5qFx5LG5A3lSYeGPp0urzQS36TVqx5Ci543ac383fI145DOjcduZUuY8ECnV/LFx4Utm7hSH/jlxk+9nJV2bUHN0IgQPgQFoTEF0QQghMUUbhE2U9DIE6F1c5IvcfiJkOtxJV+zU7rla9JE/npdpPPoeUnno5wwTjqkX3yzPpLG5I1entAmPPBKI/H0tFx71cOLf2a4W75uNJg89isbPtAGpjPzDVu2no/Q79cOevyVcG1BzQA1ETQE0ex8Aj4CBhJXjydCpochSG7gQzh58Atykq+ULfHd8tU7nFs66Tx6Xl5gIOWYvtTdqzNBA7TpYCppdN4Qpt9TDmmgEeeWhnCpgxNJ+/OqhxsfSEZZOo1u+brRQBoTqLzKJq6bPAlNQn6YsuEV9OiOdHod9Gcr8XpFgxoCgrCZztRs5DlxdeGU9AiVOD2OdFYRdrMTkIb4buGSn/gi8JIn4ZKvKdDkR7446ZACPpKG51xLfm51kbLdfOmQkq8eR3hg0iVp9E4p9EGLONJLvvJc0ojvBRRe9ZCy9baSML1sCZNydH5JGHRK+VxTpvAS2vUyeK7nIXWUMLc8eSbOpEfqhy+O9tbLJE+dhxJvpfiZPXqF1Fw6nvimULgJm8TFFyAS4ZZnIlDcI5D6vcTRBVKEVp7pvtAkICXPvPKVjiLx8ClLT8+1Xib06fekkbq5iYJ0Kr0Mt2szrcknqZsbf6BHdzr9bnWUvILqYT6HJjen00rZOo1Sls4H4pt5u/HQ5JMOXuYzytTp4Dll6+VKGqFJ6iL0mnyU58vdX7GglpSGdRN+aBPhTQqdlg7LgVLhgAW1IrYUb1jzLauT4/dMj2evLQcsB65zwILadV4U/EqGVWhlpmPo4RZuxrP3lgOWA+kcsKCWzo+C36GNiW1E9y2gFbwpbIHLhAMW1JZJQ9pqWA5YDixxwIKalQTLAcuBZcUBC2rLqjltZSwHLAcsqFkZyIoDn376qXr33XfVhQsXnEWlJ0+eVHNzc6nfxMSEGhwcTP30Z0ePHnXSnD59Wl2+fFl99NFH6o9//GNW5dvIlgNBHLCgFsShFfj8888/V1euXFHHjh1Tw8PDqqOjQ9XW1qqDBw+qsrIydfjwYVVXV6daWlqcX1NTk+O3t7crrx9xmpubnXgNDQ3qyJEjqfyqqqoUz/v6+tTU1JQ6d+6c+vDDD1cg522Vo+CABbUouFjCeXzxxReO1rS4uKh6enpUTU2NA1z4AA2A1tvbq4aGhtTk5GRKI9M1sHyup6en1ejoqBoYGFDd3d0OKNbX16uKigp16NAhBwjHx8cV2h2anXWWA0EcsKAWxKFl+Py9995TDAUBLLbUAGCtra2qq6vL0cwAmtnZ2aL/GMqytAXtr7Gx0QE6aAUE33jjDYVGaZ3lgMkBC2omR5bhPdoYIIA2VFlZ6WhAgJgM95IAYGFpYDjc2dnpDH8BZIa0pLXD1WUouDlWyYJajowrhWRvv/22GhkZcYAMmxjDO7ScsACS9HholGhybW1tjn0OgHvttdfUZ599VgrNY2mMiQMW1GJibLGy/eSTT9TMzIwzpMSgj1YzNjZWECAbm5pV+zvm1HP1C2pzw7yq7p0rSLmALwCH5okdkAkN7IPM0Fq38jhgQW2ZtDl2MpZSYGBnVhLDfiE1rZq+OXXbnkX1vW3pvwcPLqihicLa55hBBcyZYUVDZdkJQ3DrVgYHLKiVeDuz3guDP2BGR8a4Xkgwo6ymgTl11/6FDEATgHuiekFNzhROa9Prz/CU2VRsiWiwdmha4gIfgnwLaiGYlMQoly5dUqz3Yo0XYIZ2Qqctxu/J6nlPQBNgq+yeKwptwg80V/jF5AJLUyy4JVGqo6HJglo0fCxYLh988IGjmWEvY/2YdNpi+r8s89bSBNSwsRWTRikb+yITCqyBO378uN3RUDDJLVxBFtQKx+u8SmJ7EssZ6IxBmhkaiX6MEdc333xzClS+9rWvpT3Xn0nnD+tPTc8EamkA26OVC6nyzbz96F2/fn0ardTFTJ/LPZobuyL4ofVat3w4YEGtBNqShbKAGRMArK4P24kFvHbt2pWRBnDgedi8/OLdU5Y+OSDame4/VxesqQm9gJxenoCeWz30eLlco+0yhGe5y8cff1wC0mBJDOKABbUgDhXxOduCWCTLKnq0tGw7LSBgamnkAXhECRCPVwUPP8s7ZwPpF60MX68rdTCBTn+e77XMlvLiYKbUutLmgAW1hLbfqVOnUkNN1mDl+vvyl7+s+El6AG3nzp2pewnPx6/rm1V37PXW1h6rnFcj4+HqAIDddNNNKfqgPWp6verKi6O6utqxWVqtLaEdIwRZFtRCMKmQUVg8i82MiQDsPl4dMGw4AAFQsKwhDkATOg51zapbdmYCG5MIPSMzoesBjQLC0I7WJmUUwkdrY68pWpv+CbtCyoAtKz8OWFDLj3+Rpr569apj32F2jmUHUXRiGdIBbHFqPADQ//F//l/q//7HW9UtzzWq9Ufm1e62WTU5taSh3X333aHqQzzR1sKmiYJPZh7skwXYmC21Z75FKuaxZ2ZBLXYWhyvgzJkzTifCYG12sHzvAQk0oHzz8UoP+IhGhUZIeSaI6kNKr3wIB3jjptevfP0ZkzLYM9lbate1hZPjJMSyoJaAVmDIw44AtAO9U0VxLTY1gCKK/NzycNOodA0xm7JFU4tTq3Srg1cYGjOaM+DGGkHrks8BC2pFbCOGNWhmLCngNA3ALcofgIbmpANFlPnreYntDgCjPP0Z125hZhzuv/rVrzqamtuzYobJSSCcCGxdsjlgQa1I7SOAxoZrhjlRd1gBNPKVISHAE1QO6QAm+QEyQWkArHXr1jnxpCzSo21J2jBlS1q/uDp4Co1SRtw+J3+gUVtgK1KnCVmsBbWQjIoymgAaq9nZgB51Z9QBTfImjJ/c+/mABQBDHEBNBye3dG5aGCAnoIPvls4MkzRB5UGTgChlu5Vv5h3VvQW2KHtCPHlZUIuHr565xglodG4dkPSOLBqOgIH+TL8GUHTtjHRBafT0+VwLCAqgeuWlgyS0+Wl2XnnkE84uBGZGrcbmKeZFfWBBrcDsp0NEraEJmAko6J2ezquHy7UXcOiaDwBn5pUPGHilNYe8lKkDq57OBF3iBml2evqorgXY+FygdcnigAW1ArYHM2zMomUz5OwYmlbbW2bVuiPz6pWmWdU2OB1qKJdr5zUBxgv8cs0/33SicQo4F0qLdKNb9o2yYNq65HDAglqB2uL8+fPOkIVZTpYJhPm92DCrfrA9fZU+9xvrZtX4RLg8wpQjcdAgATW5T6IPfdCZFNo4oJMvXdmTdQvUkUIUY0EtBJPyjcIQhVkzTmEN2xm3Nfsf6QPghc0rbLy77rpL8Qsbv9DxduzY4QxLC11uUHlstqdtrUsGByyoxdwODE3YJM03NYM6hzwfGptUP3bZR6kf5fPD7Quqf3QqdJ6St5+PFgRw+MUp5rMbb7wxkaDLkhzamGPErSs+ByyoxdwGLK7lC0fZgEFVt7+WJuBW3jmTVb5eNDCcExtVUoef0CU0Jmn4KTzlhA+0cfbvWldcDlhQi5H/fECY0zbYFC3CH8bf3RYO1LY2RQNqYWgy41R1T6s1VfPqjr0L6oHypUmMsYloNUezzKTfc7oKQ1GW7VhXPA5YUIuJ959//rmz/YnFmsx2ZvM71Dkd6ojs/e3TWeWbDQ1+cTccmXWl7859C6pzcLIoNPnRqz8bGp1QBzumncmWlxtnVG3PVKT0Mru9uLgYk1TZbMNwwIJaGC7lEIcvofPW1jtU2Ov+kUmFzUyGmW4+s6A9w4UHkF0t/lrkE1Vzamw8OxAPy5d84zX3T6m79mV++erxw3MKsMs3f9IzYcAw1B4ymUOniSiJBbWIGKlng10FwWb5Rq4d5ZUmf/DYXD+bc9650kQ6hptuIKuH1fdGq/3kQ6+kBdDuPeBN+7rqWTUeERhzqgdr2KwrDgcsqMXAd2wrnOogHSoXH23n2do5VwBBGxodL7yW1jM8pX60I33dnA5mcr29eSavuufCr6A0a6vdeSk04x/uigaM0dJ5qdndBjF0rhBZWlALwaRsosiaNAQ7qKOFeY7Nh8W2jxyad0AubMebHB9TM30taqGlTB2v3qxOHVitTlRtVIuNu9Vsd4OaHBvOmr6OwUlXkNWBgesX6pMHar/cnznsNOneWBsd3bzUeLlZV3gOWFCLmOeipbF2qRi/uZYD6vX9j6iLz/6zeueRP/P8XV5/gzq945fqaMMONT4yFIrWwdFxdetu7yGcgMTetulQ+RWSP0Kbn/+bg3OR0Y3pwWprEXeukNlZUAvJqDDRREtDoAvZYSlruqdRvfHC911B7PLav1MXN92k3lp/g7r66J9nxLm84X+p+eb9oWheVek/jGPRcO/wRKi8CsmjO/cGa2pP12BXi+5lhLbGomvrCssBC2oR8hvjMN/pjLJjBOU1MTaqXjvwuLq66i9SYAWInSx7TM101bvSMt3fpo5XPqPefPZbqTRodWe336Umh3pd0wgdNd2T6hc+AMEyCYmbJD8IjNHg9kWsYfJyO3jwoD0GPMI+FiYrC2phuBQiDuvSysvLnY8OF6ozTw10qkvPfDMFTIAZNrNsyp/tqFZvbvx2Ko+3nvxbTzCUfA92TKmHDqZrbLfunlcvNUw7SyMkXpL8ys5J36HzIxVzqncoOi1N6t7S0uJ8GyKECNkoEXHAglpEjDx9+rSSo7lFoOP0AaM3XrrFAaMra/5avb7nITXd05QVoAl9aGevlT+hLm/4Bye/N5/9J7VYv8M3r5GxCVXVNaVeaZxWB9qnVPdQ/kNO8mSS4Zdl8843RNmpsKN5ypcOqUMYf0/rtOueWpaptPbnT78bDWjvLMi1rnAcsKAWEa+xnWBDYUtUmF/HwIR6vm5aYZxm8efOlik1Mhou7cRAl8IOxpARG9lizcueZU71tXo+M+mc7qxTV57470tA+cR/V9ybceK67xocV+xIcDPkoxWG5U0Qfc19E+q52hmH748emnW0y4HhcHwPytvrOafk2uUdEXW0ENlYUAvBpKAon376qTpw4IDzRXUvwdbDd7dMuWoM9+yfV2394/5AMjyozmz7xRLwrPs7dfzwRs/4s22VzvBULzvoerFhh3rz2szpxU3/oma64ge20bEx9WSV+9YrAbkt9dOe9QyqU7GfsxgXLc66wnDAgloEfD558qQz9AzTeYJsO6sr55Sf5oCBX5Zq+Glo0HJx83ecuMeqNmUFCDMdR1ITD2dfvSOrtGF4YMZBexLw8vJ/umshdjpMuqK6Z/8vn0G0rjAcsKAWAZ85doZZzzCdgCGPV8eV8PL2Kde85hv3qEvrb3CA6szOX7nGERqOVT+fAr+Lm25W2QxDyQMbmwOej/2lOp4lKAoNYf1dLVOBPIE3TX0TvnUOW16h47EQG03e7geNoLOFyMKCWggmBUXhHH/OTQvTWcKsl9pUN+Oa19mttztAc/G5byu0Ka/yJga61RvPfy8FaoATIOUV3y18fKhfpcrbeJOaGAxXP7e8gsK2NoYDtcbe0gQ16n/kyBHFUVTWxc8BC2p58piz6cWexhs56CfamJ+PfcnMZ6q7IQVSRw9vzHiuxz9+cH0qrgxV33z6m2q6szYj3djwQEaY5EWZslh3oXarZzyJn6t/sD14+9UtO+ZVz+BYbDT40T40MqZebZxSqw7Nqocr5pwJnvb+8axoYWnHzMxMntJmk4fhgAW1MFzyicOJHJWVlaEF/J796eu73MDthbqpjPxe33XfkpaG1tTfkfFcOuVUd6O6+Jz7FqmTe3+bkY5dCOP9nRnhkt+ZV+9wyj235ceecSRurj42xH/f5T7zKfxhljjX/PNJ19w75npc0Y92LKh9rZOhabJ7QX06UcSPLKjlydATJ044XzMP23GCZvnoxEe6JtI6y/hQn3r7sb9ywOXEwbVpz8xyT+5flaGlibb21vq/V7OtB1Pp0b549vrOX6fCzPxmWw6m8ptpPeQZz0yX7T0AIQBm+pwdB7hkm2e+8Tv6x5ylHyY9cg8Qo2WGKaevr895+eUpbjZ5CA5YUAvBJL8oDCkYWoQRbOLU90you/d5a2vrq2cy8hLwAdj8hoszbYfVpWvr1wTITP/1Hfc6+Y/3dag3Nn/XAay31v6tmm0uyyhX6iS7Fk7ue8QzjsTNx9/ZPKV+VZa+RxMN7UBbOsjnU0Y2acPY+lhDFzbPsrIy+yk9v84U0TMLankycnBwULEOKaxgE6+u232hKVocQzEzr9d33++Az/mAIeCJstWKrVK+v3V/ryb62tWJg+tSGhjAd3rHPRnlCh2v73nQictQVcLi8rFfoanuaZlUDT3Z2a2ipumJw/4HdaKx3bZnQQ0MB9tSoQ3b60cffZSnxNnkQRywoBbEoYDnrEFqb293TrllA3PYX//QqCprnVBPH5lRW+qnVG3XmGfaC5v+xQGV1/Y/5hpndKhfjfe2uT7T6SEe95NdDeris/+UBmpXHv+vaq5+l2seC9VbnLjEmepqcI2jl7Ncru874K1RyxAUv3tgNBRP+AjPe++9FyBR9nG+HLCgdo2DrCHK5SvbrE/jDLW4OvJYf1cKfGaay13LQUM7/eovXJ/pdJ195VY11ValXvOwu53Z+nPXPMYGe1OzoPM1r7jG0ctZLtfrqoI1tZ/vmVdDw+FeZizruHz5cr591qYP4IAFtWsMYuMxNg9mMll31tHR4Zy4wQdqmQw4d+6cunLlijN80D+BxjcoWaMWV0eeaq1Mgdro8FBGOYDe24//Vwd0JrvqM54LXdMtFU4+FzZ/R13a8PVUnrrN7eqqv1QLHqB1af3SZvfj5U96liFlLRd/V7P35IVoaqsrZ0PzA1lBjqyLlwMW1K7xl4WRgFrYH9te+EgxIMgQNK6OPF+3zQGgK2v+xrWMU3t+kwKo0x6a1sjQoDr30k+X4rkcEqkDG/FGXMBTFvOe3P2QKx1x1b+Y+WIieMxnB8gde+dVVed4aH4Aaizt4IWp/9D2OcnD/CFjIo/Hjh2LFwmWUe4W1K41JpvSASkRojA+K8UbGxtj1dRYaAvocCyQ2cEZjl5e9z9ToPb2qr9w1bQWK5fyeOdR7+O9dWA7WvV8RllnX7nNKef0tjsznpl0Laf7roFR9WB55tY2jjXPBtDgCaDGbDnD0DDyJXGQsQ8//HAZwU68VbGgpvF3amoqtLAhpJ988omz5zOXiYKwHf/EgTUOmFx47tsZYPL6zntTgCagdO6ln6jRocFU3DGWbjy/tHRD4uCf3PWAmm3c6/qb6qhNpRc6T11b/MsiXAlbSX5527jaVDvtTOwwM9s7GM6OpvMIzQubGlqXAFYYf25uTpNSexnEAQtqGoc48yqMkDGE4KRb3MDAgANsbGqP43d8/+proHZjWv6zDbvVW2v+WwaoAVhHD29y4mJve2Pj0sypDmhcs0ZtrLc9LU8/+k/turas5MV/C53GL7+V+AxTBUs6sMnyJbEwsoZ99/3339ek1F4GccCCmlKOxnX06FFngiBI0BgKCKDBXN7EDFvj6qRHK59zgOvSU19PK4PZThOo5P48gNXXoU5vu8szDnGPla9Ny9OvDqdfWdpMj93OL5595v1yQ7bkpA5m2sOYOyYnJ4P6sH1ucGDFghpvS2aiMPKzKDIIzHjOW5Mhp+4YGgB0cXXmuZqlrUycSCtlEHZ19dK2KQEy02e4yLoyM1y/Z4/oeEedk+/IYJ/iJ2WY/vnnl75UdWr3A65x2vtG1CsNk+rJwzPq2ZppZw2emUeS7rv6Rxw67y2bcz4kw0LbI51jrnWLgu6hoSFHxnTZQWtj7Zqf7KHdIWPYfK0Lx4EVB2oMMXn7mcKE8GD4v3jxoivIYQ9xM9bybQIMwFEIvlseM80HHGDitIzR/m6nnLMv/bsvWAFczJbqAPauxzdAT+xb5eTJUg1+bjQQdvGZ/+3kd7zs8Yw4LCL+8Y7MDekPlc+qzv6RjPheZRQq/HDHmOLQSVmWIT57TDfXTsVCL8t+kBPTecmbCXR8lQq5FU3PzMfeX+fAigA1bBIYZxEsXVgAMmxip06dShMWtj7p8RgmXLhw4TrXtCtWiMtXpOLolKO97SlwYs2aVxnnXl4CumMH16vZ+p3qyuN/nUoHuJ1/4QdqvKteTXQ1pP3GeloVtjdA8MrqrznXZhlocPIJvvnqLWk0VLSPq9t8PnCMBjQ45D0kM8uK+76pZ0z57RT44fZFtatpPK2OUdDEso3+/n5Ncq5fzs/Pp8kbssfogXWRzJYipyKPhEPPBx98cD0De5XGgWULap999pk6e/asIwDV1dUpoUA4MPQjSBwb5ObQvkSIeLueP3/eLVoqjLcow1iGGHH8Llz7ZgCTBm75z9W8qt5e/VUHxNCozm75cRqgica2cHiza/rXtLVurEMzy5g78rKTHxvqJ1qr0p6jjYmm4+UfbBtLS2PmX8j752uDF9T+av9s5PQ2NDQ4L9aU0GgXv//97x3brMgcPntFxfFSXlhYcPYYSxw+5gLfvF62knYl+ssO1Bgiuq0FqqiocAAuzDYV7G0MT3krXrp0KVAu2NAOUMbVOU9tv8cBlbNbfuJaxpmXf5YGYlcfyfwKO8B27oUfqOnGfWq0uyWVz1TzAXVJW+t2ee3/cOLodTm55yEn//Mbb06l43nf4LC6bXf6qRpuwLaxZiotnZ53oa8frwze+vSz3Ququ384UpoxX6B5eTk0fr5IBmgBWG5yhw2OEQdLiATckFE0wDNnzqg//OEPXtmvqPBlAWrMRvLxE4BFGlt8Vm6//vrraTOWYVqYNWtht7Rg6+BNnE0HHRgcUi/WTTrHEGHLYQ/hhupp1TOQ2Znmq15IaUrDA71p5fDsXW2XwFUP25loayziZeZUaD21/VdpgEi8U9vuTj0nntjTWNsm6fA7+4YDtTRAjiGonq6Y1/eH3KRO3aKiE9BBHvVZczcZBNh4+bJlz8/x0mUUYs6eco/M8nwlu5IGNbQu7AsIgoAYPiu22bPpZtgP29jZCAbGXuweYTtB78Cw55lqrFRv6RlJy2ukpy1l01qseDr1bLi/V5194d9SoOQ1GSCAtuT/P+rKE3+jZhv2qNn6XeqKy1o3bGtztducciZbDqXyn27YmyqbugLMgLGbdqaHMeQLy5u44/Hi0Glzu75z33yk9HLeHtp8GAdYZfONUIafvLh1+cdkwks+lwMawtCY9DglB2rYwbCHmVoZ++ZYM8abChtFIR0AyJCB4UOYTvlcjf+HRlYfmlH9g+maAtoToPTGpn9RI31L5SweejYFOOnA9WfqyuqvqpO77lcLh551fkcrNqiLT3/DiY829/rWXyjWnJnp5J4TPajL69fKZUnH0EBfRv0eOxQ8nDvcPpqRLgyf4ohzoHUsENTWVU1HSi8gE/feTfYuwy/9BQ+QLi4urrhJhZIANaaxefOgxgMe8lZi1hED/fHjx4vecAgUQhTUEQErhptuGoIeVteVDgS6xoThfrSnTZ3f9K+eoAQ46cPMoxVPp8V9+7H/oq6u+nTHUgoAACAASURBVM9pYQJo4i8eXJ/SEL0mGVge4aetRQ0QQfwN89zv8Ec0ZTcTQJh83eIgs9i9CrUU480333SWJulLljCNMHLJRgMspFIQdVmJBTWMngzr2E5CowiQ4WM7YDIgjNE/aoZ55QctDEFZDuL3q2wfDQQ0wO3VhvGMfM5cO2kDMDux+7e+gAQwMVvJQt2Rrmb1xsabU/GD7G4Capef/B9OmgvPfMvJw6teB1tHFWCggzLXj1bMqJ7+oYx6eOVTqPD23iG1sWZS8YUqnWa0TtonSjoYevIrtGNSAltvbW1tqu8wmiHMb8Ki0HTGUV7iQI23CVuWTDsBs0e8CZnl+d3vfhcHL/LOExoZgvp1CoZiekfyun6pLhPUZmq2KmYnAZ2TO+/zLUen4VjZtQ8TG5MIVx/9T2qu6gXXfBYPrE2B4OLBDa5x9DIwrLO+66nqabW5ZkIBdPrzJF43dw+r3U1jCl7Xdo7EQi9AwiijWI7+hJbGrhdRDJBTloyg1S1HlwhQA6RYG4bgw3BhPj6nygJypXAM8vT0tLOVyq8DMwnAAk8vMJPwAx6gcLRs6dQOgG26dkdgRxxrr1EXn/lWCqBECxP/7Is/UkP9vWn5jLdWp75edXbLLWnP/Opmn6Vr6Sz2xsbFmsliOybNsK+hNUr/gjYUhaB1mMWmPdvyiwpqrMUBCMypad4qqMml9iZBeBEUhNmvg99X5r9g9fY986pvwH3YNtzbpU5fW5fGabRzh5/3Lev4noc9AU2AbaHyuVQe0/W7U0PVC8/8k8KW51cX+ywdyHR+sFeYpUFJcuxdxgZtjoT4hB+joKBlJ0mqixctBQc1tnfIliUMqPLWwLDJliXWlJmbxr2IT2I4NkBAWRdu87qpe1jxMVzRyky/rMV/6IaNTI7Xxm7GUguzDO6HBvrVuRd/5IAUNjWv36kd9zrp0dDYOA/Y+eXrVlacYdjAGCI+UjGj1h6eUnubx1zrGycN2ebNBBYTWUnQ0tz6CXTR18ytg9wzXC7lDfQFATUYyFILllyYp37yxmALyDvvvOPG+5ILA5Bl25RfR2joGlb3GN//REMLa6g2ge1o+bq8OvrMka2JBLTy1lHXr7ezPQuw8+NxMZ/xYtO3OiVVkJmQY20cCoWuZLBkCo2uFD/pFyuoMcuCkVIfx6OZoZaj0bBwcDlu7RgfHw+0rUmHw1i9r3lM1Xdlb6jWgQ3t6sKz/6TQtiTvMD55YDeToWiSNDQA/o493p+pW1M5rfoHvId/YeofRxy0NF5spTbioD+ymF3fQM8yJdaFltIG+shB7T/+4z/Ua6+95mz10BcCcs24HdWWOMvZobqzng4tlDdgnL/xlkp1csevUob9K4/9lTr74o/VwsENarS9zrXsoe5WNVe5WXHw41tP/L8pQGMP6VT9btc0cdbBK2+WhJhDc/MeTc4rfbHCmfFMmi0tm/6GrZsXs34QBIoIy6hKYUQVCaixHYMVzZxHxuppsZPhc+QKh9y9/fbb2fC15ONynBFvPBZfFqJzTdXvSdnZROvC52vt2NIArPObvqMur/v71IJaice2qPmKZwpCZza8uGuvt5Ym4LapZjJRdDMqAdSy2WaXVGGnzwLOep+mboyy3nrrraSSrfICNbYsYQ8ztyyx4A97AlPFy2E2JdfW4zQF1PdsOnI+cYd6O9Xs4RfVqa13pNazCXCZPkcVMexcOPiUGu2oLxiN2dRPgMvPZwiaTZ5xxmXYyYhkub3AWU4lJzyLwsLEHn2cBfJJc1mDGts90EIQDn3sjQ2B0wX48G8+G8mTxqB86MHIipCzIDfOziR5s+D1mepJZ4ZwT22PGq3Z7Whgx3f/Rr2+9Q51YteDaqF8vZqp2aZGEgpkUhf8MJraxiMTBeGtTpfXNTtfsEktV4fZiDWjjL4E3Oj32CVRYJKinYYCNYhlzZgcsSMVwkfdZjIgyepoMYWMBY+81eIchnb3DTpbkkyNhtnUqvaRxHR6LzDwCl99KPhEDYDcK30hw+kHLBxP6hKOKPsAEyDYzc21big1LKIv9ujMF9RQO+mUrOrXgYxlGSzPYCp4JTRivgLBsARDa1yd7MlK71M/0HaqO0oT2A63jTgfRTHBWu6fqJyKhacdvUNZ5Uv/QCP3Okk5X/lJanpOw2GtG2Cm4wP8YEKwWNsZM0ANQlhZzPYJffYDohlGsXbFfocwOzHjzYWxlbd51MCGpiKd3MtH44m63ELlx+zmT3embzynng8emHHWqUVFR1//gGIoKyeO8CEZNrg3dfkDHB2amW5MMivVsSyLdai0BcNRAThs7QxXC73WLQVqFMxMh7n3kqET4aWw9zLJQoUtEhskkwcMRaP60RG9wEzC0daiKq8Y+bT1DKottWNqzaEp9XT1pNrbNBppfbp6BzwP7WTnR0XrsGd5zAZilrFuiQOsdWMUp9vb2QbJREOhMCQFaiyUFYRlZTFvIJZpJMX4txyEhuOJ5DDJqMDh8UPeQ08BNfyoyluO+Txd5f9iuK8MjW0wg4fM8jPUsn0ks3diY2etm76DiNEKe73jnh12QI11ZtgEADVmMkptJXQmS5Mbgh2StxhD+SgAYiVoalHwySsPtEC3b5bqLwSudzama4fYSNFAim0UT66kL1EGlqDJ6pobQ1TWtMblUpoaxmxADXS1Ll4OYLOMCtjKW0YCh5+PVUxFAqBewFDK4Qdbwn085tnqiRQPWbphAS27PsKEIkNQMW+xcT6u04BToMYiWkCNxaJWnc6uwXKJHSWwMQtoahZy/4s9c4pZxFIGnjhpP9AcDtSerpp0eGg1tFyk/XoaRoVykjXbruJwKVBjv5fY1LCvWRc/B5gxQmPLd/KAIRSzgQJk4jNreKAlHkDr7B1Q+5tH1As1Y44hvadvoCSBs6lrQP1wu/cxUMLLV+tHnaOxmcG2Q878+oaAGstB4nApUKOhpLC4v3wTR0VKNU9sbNgzWaWdr0ayq3FUbaiacnYUvFQ7ptp7Mo3b+ZZB+lfqxtSdxr7MX5fNZtidoiirEHk8ctB/ke9Pds6riup65+VjAS2/nsauBDniKC7lKQVqkMpULNoa602sKxwHOEceWwNDf04ySfIPjUW0F9P/yc4FtbdpJNH0u/G2rXtA/WxX5lo46seXvzYfaHX2OVqzTP59QkaEvMjjOogyDdRYBQyosfamWKuB82dbaebALBHGZ6a9WU7j1vmKHdbZ0+/Z+QXg7tk/l0jag3gHsJka2893z6qXyuqdLUGlKVXJo5rtVWK7j4u6NFBDY+AIYgplEZ11heUAmgAbolnLhp0tqCMW+nmYmcLvb1tUdR2DedNOHpWtQ6q7tz/vvLLhE8Bd0TKkyo80O/bOuNdUFVbCil8ayzvAF8wKcbk0UKMQOhOFxjUzEVdFllO+zIwCbBils+mQccfd6jP0FE0N/2DLUM5072wYUdiwJD+M+OsOTyrAJu76kT/yjymAdYRxDY+Wk6xmWxdZOhYnvmSAGluiADVWSltXPA6whoe9c+y/pS0K0aGDytjTFLwmDjA63JYbqDGTKmBm+nfvm1M9vfHaG7Fp8jLBDGNdPByQyci4Zj6hOgPUOBcJUKNx7cb1eBo2m1w5QACjKh/yKLatrblrwBN0BITQrILA0e15Y+eg7xe2yB/Qc0ubbxjaGdt5eInEtSA0mzZfrnELMfMJ7zJAjUaV/Vpxoulybbg46sVHL+h4rGlj6Ue+nTif9BsO+++T3HwkN+DZUjseCJi/3j8Tad1Z1c7LAr5yuKl18XKgEDOf1CAD1AhE6NHWSuETX/E2Q7JyRyiYHWV2GpBDcyv0r6O7T91f5r6ui+1Y3T250fRk5WQgqKEFRlFfwIyhJhow5+3bMwELI+eFmPmkJq6gxhlIgBoNz7YG65LDAWZIsfmgXRQL3ACuF2tG1QNl0+q23XPq4YPTalfDcF6Asz5AA2T4SVldPX05lyOaGWAGONpj5wsr14WY+aRGrqDGsSGAGr+4Vv0Wlp3LrzS0C2aQBNyYKY1CiylWHq/UBU9C3Lt/Jqc6MpPJGkDAjCOoOQLKusJzoBAzn9TKFdTYCoKtAVBDa7MuuRxAk0atxw7KgZ60G8JTLHDKtdyGzkF13/7M/avXJyAW1faG0azqxRCdDeisvWRdVKEOKUyutBSXskLMfFJDV1DjgWyZinORXHFZvPxK51BPTAZ0YmxvzOblCjLFSMdiW6+zzTjIMQxNaGV0HtaaoZkx5LHnAxZf1gs180lNPUGNM9fR1LDbWKEovlBkQwEaCZ0ZzY3hKUMvhl1hQKHYcRo6BtSqiml1++45B+CYlNgdYK9DM5UtZgA6GhpfNbL24GykJt64hZr5pBaeoEbH4E0HsKEBWFd6HGBSAWHiNGNOG0V7QYspNQ3ODWjRyBhqo5ECZNQLU4l9ASdTTgs180ntPUGNh/JdP84Vt660OYCdlPPbMCuwS0GAgOEqOxbQdpL8Y+aSNXrQK/QDzhxuam1lyZfNQs18wglfUGN2DU0NcLNueXGA5Qy8PQELtDi0crQeDOsAB0O4YoEcWhgAhvYFPYAYZ3BxzTa+ixcv2qFliYkjsgSWxLnnU1jiC2oMOyEEgbdvQ2HZ8vQBOTQ5QANAY5sc2hyzqgJ2gAxLR9CQAJ58QI8XJcAltjAAC/stNkBkjjIZNnNgKcuK7OGMpS13yA7tWohdSr6gxplqsmVqJX+stbTFKXfqATqOoEKjm52ddQ4PBYiwzSGg8gOI5IdWBTjJT8LxxUZLOq4BMsCRj/0wjMS4z1E/FsByb7MkpizkzCf19wU1IrCkAyG0W6aSKC7FpYl9wnwEmx+aPIta3X4AlcTDt6BV3HYrdOmFnPmkboGgJlummGmyU+SFFgdbnuVA6XOgkDOfcCsQ1LBnyDDDbi8pfQGzNbAcKDQHCjnzSd0CQe0Pf/iDMxsGsNktU4UWB1ue5UDpc6CQM59wKxDUiMQn4gE1jiSyznLAcsByIBsOFHLmE7pCgRqzUoAaM1v2ZNBsmtPGtRxY2Rwo9Mwn3A4Fapy8ypQ8wMZx39ZZDlgOWA6E4UChZz6hKRSoEZGtNICa3TIVpiltHMsBywE4UOiZT8oMDWosvgTUWG1uneWA5YDlQBgOFHrmE5pCgxorywE19gny0WPrLAcsBywHgjhQ6JlP6AkNamyZqq2tdYDNfhcxqCntc8sBywE4UOiZT8oMDWpEHhgYcECN42ussxywHLAc8ONAMWY+oScrUOPDugxB2TJl9+/5Nad9ZjlgOVCMmU+4nhWosTEZUONnt0xZobUcsBzw40AxZj6hJytQIwHnaQFqHBVjneWA5YDlgBcHijHzCS1ZgxpnXwFqnBtvneWA5YDlgBcHijHzCS1Zg5rdMuXVhDbccsByQOdAMWY+KT9rUOM0VNkyxfHP1lkOWA5YDpgcKNbMJ3RkDWok4mMdDEEZM1tnOWA5YDlgcqBYM5/QkROozc3NOaBmt0yZTWnvLQcsB+BAsWY+KTsnUHvzzTcdUONrQ3bLlBViywHLAZMDxZr5hI6cQO2zzz5zvgTEEBREts5ywHLAckDnQLFmPqEhJ1Aj4dDQkKOtDQ8P63Wx1yE5cPvtt6svfelLasOGDSFTZB8t7vyzp8imEA7ccMMNTvsz2onLFbP9izXzCS9zBrUTJ044oAbxv//97+Nql9D5fuUrX3GEhIbkF+ajqWaa0IUlPCJAKXyIEzSTxAazLW37L/WDYrR/MWc+kcmcQe3q1asOqDEEZaYjCY5vlEpnRhPyc7whJW6cb0s/GuJ8RqemfsUQ6jjr5Ze3bf/r3Clm+xdz5hMO5AxqJOZr3YBakrZM8caWt/b1Js68Io4MAegMy80VU6iLyUvb/kvcL2b7F3Pmk9rnBWoTExMOqGEUTIpDqGX45aWlAGJochbUktJq0dFh23+Jl8UEtWLOfFL7vEDt7NmzDqhVVVUpxtFJcAi1U7FrtjU3mgAzGt0L1CRchqcmOIrAAIz6kIdwnEwCSHrdlzgCvKaWSFzKx1EXSSvpnAc03LX6iW/mIzSatEv65eqXSvuLjLi1a6m3fzFnPpHrvEANIAPQGIImZcuUCLWAhtmpRUuj8gJeOiAQJnm4xdFtccQTARSQMNMLHQixOCkXQJKy8QWg5LkIPOF6Odzr+Uk6yR9/pYOa8D2J7Y/cSJtJGy+n9i/mzCeynxeokYGgclK2TAkgSaeWe+nwgIEAiYCH3BOH+DpgCIiZkwkm0JBWyjQ7kltcyVcvW8onvu6gR8KkDJ0eeS4dxI8WPd/leC3tLXySe6lrUtpfQFdvM2iEXmlrnWYJk3oltf2LPfMJz9J7j3AxC59JAjQ1Jg2S4HQhls4uAoBA6BqPG6iZdRDwkTzkOUJG/roTgTPDoUkvlzSSrxuomXGlHnpZ+rU81zuI0GICrJ5uOV6XSvv7gVopt3+xZz6R6bxBTSpBJ2WZR7GdLtTSsSWMzq+DiB+oAVr6LwyoUXfKIp0ADOVxb6bPF9QkX51GKRM6pO4rGdSEB0ls/3xBLantX+yZT2Q/b1Bj4W19fb2jrSVhy5QIsICraDEIkfnMDdQkvqQX8DFBCTAhrpsTYBPAMdOSRvLVQZZw0ga9qc04QrMFtSX+6W0ivEla++cDaklu/2LPfNL2eYMambBViiEoW6eK7Whw3elvNBNcTFCTuHo8AR89jPy9QI14ZlydHrmWfLMFNbfOIB3XglomqEmb0l5muxSz/d3aEdkwAYswaV+u3dLJ8yS0v9jYZ2ZmRNQL7kcCaqJyorGx2b1YToYbeuNCC8Jrgh3hhOnCLul1TUmPIwAk8dzyJD+3cJMnIpxmR3NLL52PcgUMSY8TWkjHtdAonRmBXylOeIGvuyS2vwCRtJfQW+rtX+yZT/gYCahx/BCdDW2NY4mK4QR8EAp+OjAhOAIC0CYCJXHFd3smIEIc0un3kk4XTAEreab7AjACUvKMcAEhCcOXTqqHUb5eV671Mnmu35M2DMgWo82iLFPnCXVOcvubtNJey6H9kzDziUxFAmpkxIGRgNr8/HyUslpyeXkBiAhtyVXIEpwVB1Zy+8ukYUVFhfr000+z4luUkSMDtampKQfUkrRlKkpGhckLjUu0Mbf4fs/c4tuw0uLASm9/MUM1NzcXteEiA7Xz5887oHb48OHEbJkqNGdlWIFWZjqGQ27hZjx7X7ocWOntn4SZT6QnMlD7+OOPVXV1tQNsZ86cKV3JzJNy3ta6DUyuLaDlydgSSb6S2z8JM5+ISWSgRmZ84Bi7Gqd3WGc5YDmwsjiQhJlPOB4pqC0uLjqglpQtUytLpGxtLQeKx4GkzHzCgUhB7fLlyw6ooa0lYctU8ZrYlmw5sLI4kJSZT7geKah9/vnnqrGx0QG248ePr6xWtbW1HFjBHEjKzCdNECmokeHIyIgDaknYMrWCZcxW3XKgoBxIyswnlY4c1E6dOuWAWl1dXVG3TBW0RW1hlgMrnANJmfmkGSIHtffee0+xohi72sWLF0uiqWXrk761Jg7CZXmHvjdRtkJBQ5zOrew4yyulvJd7+4uMIQNxuaTMfFK/WGrZ0dHhgNrc3FxcPHTNVxY/Sgd28+MGD1fCPAL1NU1JosuD3MQH2/YvThMlaeYTDsQCatPT0w6odXd3F5zL8lZCwE2nbySPCkTYjJyPkz2hUdEDLeSla4P50FdqaW37F779kzTzibzGAmqyZaqyslJ9+OGHBe8XaGhuoAYhdHjR4PJd5U9eaFv5uDhAjbqvVFCjLWz7F7b9kzTz6bR/Ph3SK+0nn3yijhw54mhrxdgy5SfU0CzDPi/g86qXGU45SQM1OXbIglqmpi7tZ9tfOBGNn6SZT2oUi6ZGxmggTBaMj49Hw7kscgkCNRmiEI9r0ZbMoaQej7j8vM6+kkkGARXylM4jzwBRE0ilbLQ+SWvS7zZs1uMKsOrxhF7yx7mVLSzV8yKd5Gc+Jy9d0zXjSfxi+yb/THr0dl0p7Q9PRA5NfuTb/kma+aRusYHa0aNHHVBraWkxeRj7fZBQOxW/BlLf/e53U8NRGld35COgQDjAoMfhud6xdVAhLgCA0zuRF6jpeQvQ6XEFTCRPPV+dBhFQytTjePGEtG7lSAfQ68S1lCXl6PxxCkzAn1ddddKIw2+5t7/IEnWVNtX5EEX7J2nmk7rFBmpXrlxxQA1t7e2339b5GPt1GKGmIxMPkBDQ0QFLwgQcIBoB0eOQXjq5VMoNfOQZQqUDiORJPnq+hAtoCIiJcMq95GnSIOl0uonrV7YJTJKH0CR1knvyE/7oYUJTsX14YvLZpGmltT/1NUFNZCqf9l+zZo06cOCA09fp80lwsYHaH/7wB9XU1ORUttBbpsIINXH40aBeHRQhkDhujcUzL1AzBYX0fsBigpUInICG3JvxTBqIT1gYUIN2t7jCD+kEAmp6nSSO0OfGn2KFUacgUCMOP+rkVZfl1P5uoBZF+z/88MNOHy/2abe6rMUGahQyNjbmVHhgYEAvM/brIKEWISYe13Lv1kGlQxM3CFComMTXAUAqnA2omTTFAWrSaSnLdNR3uYKa8HYltb8bqEXR/vfdd5/Tx4t92q0uv7GCGsLD8LOurq6gZ5YjrH5vanlDSacVIXcDNWGWgJWumVGOfk9ciZcvqJkgZt4LXSYNuWhqbrTq+brVKQzPhMZC+7b9MzV1N1CTfpBP+991111OH3fLo9DtLuXFCmrvv/++OnTokFPpQm6Z8hNq6aDEoWPi3DooYSbIca+Dpd7xhaGSv1sjA6J6etIQj3xIpzsBJwnzimfSIOmkbpLerWyh1QRm4YfQJPH0Okkck0dSXjF9eGLyWeiRuhBHeORWF8LMunGv52vynjIkf51XUrZbG3i1q7SjpPWKZ9Ig6aRukh665SUuYUJrPu1/6623Ov27mN/5lPqIHyuoUUhnZ6dT6dnZWSkzVl8EVBc+KVDeTLpA80wERm9cyYeGF4dQ6IJBPnIv8USo8E0HTaTRnZSt0ythkifxhR4pjzCudRoIk/LJAyd5uJWt5yHxJEwvR/LU4wiNOs+cAov8J3zS+SkkreT2R07ceCIypLctYWHb/+tf/7rTv+F7Ulx6D4uBKhCcIWhXV1cMuadnKR2XBvT66Y1HaumwEl8aXjqHhOPrDW2mJR8REEnjl5eADvkIQEg6fDcH7XocM52k0eO41UMvmzR6ZyctdRFn1om4XjyTNMXybfsvcV5vf1NGeGYCUL7t/yd/8icqKTOfcMC990QolRcuXHBArVhbpiKsis3KcsByQONA0vZ8Cmmxg9rvfvc7VVtb6wDb6dOnpVzrWw5YDpQ4B5K251PYGTuoURBLOhiCssTDOssBy4HlwYGk7fkUrhYE1Fh8C6ixloVFucvVsZGfj8/wBqPBBwcHnYmStrY2p+58F5VffX294otbhPf19SmOPp+fn1fnzp1THLL5xRdfLFcWlXS9pH1PnDjh275sGzLbd2FhQb3xxhtO+/7xj38saT4I8Unb8yl0FQTUirllSioatf/ZZ58p7IVMhADWLF05ePCgqqmpce45KJPvoPLDWAtwmT95ziQKAEdn4Av3vAAYspMOgHz33XejJt/mF8ABvX3ZGWO2b3t7u2/78kKT9mUFACBnti9xaN8PPvgggJpkPqY+yKo58VBsagsCaryZ2NgOA44dO1bsOudcPuAyNTXlCCd1AcAAI4bXaGac9BvFD6AcHR11Zoz5OhdbUOhUvBkRIL7aZV30HNDbl/2MdXV1CvACfOJuXybS0NqxO5eCpp600251aSgIqFEgRxABBIXeMqVXNpfrjz/+2BkaMmQEWAAxNCjAjbV3hfoJyNHRWNoBDSxoTtpQpm7wkvq7Xw24/nLhf9xpzPYFxJBRTm8uVNtSDu2Lds+LEo0fGphdTKpL6swn/CoYqPEGEu2GGdGkO2xjHEeOgKFlAiKFFnSvTsWEi3QAhqvY4xguFdPpYDZ98v0MUgToMh4UKUBvX8wHaGNe/C50uN6+VVVVzugmadpbUmc+EaeCgRrHeqNiA2wYTJPqoE1sZIBaUoDMq2MNDw87p6GgRaINY8wutHuq/DVHM3tw64Jn0YCe33PPhBE/kPZlwqbU2hdZ/PTTTyPmSG7ZJXXmk9oUDNQoDIM4oEYHTZpjKIfhkzcjtqukg5kJcrzdAWM0y4mJiYJpbgJoP3tmOmlNmkYP7YsJgWPmaV+Tf0m/Z3gq7YtsFtuumtSZTxq9oKCGER1QYzYoKQ4NEnrQdJitSrpwB9En4EZ9WHoQp82NYWbShpWmXNG+DNUZpmOID+JfPs/17Ulcf+1rX3PK2717d9r2Np4xAZRLWbQvaRn18OHwYrmkznzCj4KC2ptvvumAGrN5nOBRTMebDmM/mg0aJNfMOkb5cxNyyf/mm29OE3Q6gDyLwmf5CMtC0E7i2peHdgaooa0lzdG+DJFoX15acbSvWztJu+7atSujPZGH9evXZ4S75RMUhg2QSQWWm1y9erWg7E/yzCeMKCioYQ9g9g5trZhrWz766CNnqMkbDztUkADl81yE3E2Y//RP/1Txyyf/oLQME9Da+GZE1E60NLeJgajLyiY/aV+0ibjb1+Q/YAZ43XPPPWntSju7AZ2ZPtt77IK078mTJ7NhUV5xkzzzScUKCmoUiAYBqKFGF8PRIKjuCEO2ApRLfDoWQm5qYoCdG9DlUkZQGnjNW50Z3KhsMTLbedOq0YxmFDubgJ74GRFjCJD2RfsO4ktczwEwvb25jrOtR0ZGnJ0q9K04zQ3SXEme+YTGgoOabJlCbS70lim2qvBWQ3WPS6Dd8kWoATZ5FgWgnd9+p5obH0rlKXl7+Qy/WJoCyKLJ5Ou2N5x1hp4mqJnDUYlXiJlPlrbwwmKNlxcfChEu2jllobGZWlscNDDUZuRBv4p7BjzJM59FATXG/2hq/N566618+1ao9Ggnfj+/sQAAIABJREFUaCloK2gtcQiVX54INaDG8CMKQDvWflC988ifqdMHHsu6LmgwdHw0mnycgJUJamaeorURPy5H+zIJQPsWerjp1u5oZbQ3bc3PLU5cYdK+cX7BLckzn8hYwTU1CmUfHKAWh53H7DhoJRjLmQ7nDcN0eKF/O3fudIQcQUfg8yl/ZnxEvfHSLQ6oXV7/92qxsyrr/NBk0FjRXHN1+synn01NJhP84uRKA+mkfZGpYrWv2Z7IG2395S9/Oeu2MfPK5R6AZzKO2e84XJJnPqlvUUCNdVSAGtpTnE63r+QiHFGmQcCjEPKTRzY7gIamxu/s7vty6jise8rXziaA5bdGLU57mrSvLKKNsr3yyUs0tXxfYPnQwKJsFhhjaonSzpb0mc+igdrZs2cdUKNTxTX+5xgftBHZ3pSPgOSbFpsagMbbm7d4rvnNjfSqN1/4bhqovb3mb9Sxlv055Ylmw1sXLSfXCQQBLXzTiTbnB3pmmrD30r6yTzNXnk5OTavWwRlV0TWrBsdncuKjWfZNN92Ud1ubeeZyj/LAsh7WX0YFbLxIUEjQBJOyu8GUmaJoaqC9HLETx5Yp1mUBaMwG5SIMUaYB0Bh+RvH2PnVoQxqgibZ2fvsv8qonxmVsMbkKPpMAOriZ11GvY5P2RQvJp612t82pX5YtqO9tW0z9nqyaU439s3nly8uLdveijefy84oTVTgvLpZRYQfLtX110Ej6zCe0FgXUKFiMjTRelE4EPikaGoAmAhok7MTT7W96x5jvb1GXnvtnV1C7+uifqxP1W1PlSHlh/agFX9pTwC5Ke5q0b74a2o6W2RSQ6aDG9b/vWlAjE7nZXqX9/IaeYnML2z75xpP25SWfryOvQpiO8qGzaKDG9DvMiXLLFKfGoqGhbrOEoZi/r371qw5A6TQQBrDpYW7X69atU8TVn71+4DFXQBNtjcmD6bHhtDR6+qBrGapEIfgikGhsUWpp0r68EIPq4/d8YGxa3bLzunZmghr364/M51SGmBkANy8aeGa2r1fcqMKZ9WdfMwCZjxNlhNnbpLqigZq+ZQphzddhE8JGh9E4KkHIJR8ACeByE+q7777beYbvlzfP9TgLXTXq8lP/yxfUALfXqjf65utXJs9YDoFZgCFGWCdLNliMqzvsaFHa0jhaic3oDJOD6hH0fHebt5YmAPfzvYtqfDL8i1FeWDKsxAfg3GjB5oacuD2LMwxg46V/5swZvamyuk76zCeVKRqo/f73v3eM5mhrUWzM5Q3Cso04hcIvbwEzXagZZkgaeYPrz92Aj/jE1dPODveoxdYDgb/57rpUeVJutj52KgQ/7H5CgMu0oXFvglxWPcclMho9i4ezrY9b/Gdr5zyHngJq+L0j4UHNrRyvMGRAb1+veHr4xOSUauqfVsPj+dGEWYb2zeUI8VKY+SwqqFE4Qx1AjW0e+TjWW6FaM4TSBSGb69nBjpzTZlNOUFyAzusNH5Q2qudouywH8Jrd+o9PPldnLn2shhffUfWDl9Te1vPq2YqT6vE9x9W9W+bVD9dOqO89Ma6+/choBuB9/f4h59lPn5py4q7aeUxtOnzKyaNl7LIaO/aueufD9AMvGTKhpeXTvjpvXmwI1tR+uH1RdQ9PRy4T2Q49xyen1VM1c+rH2nD5/vJ51TaYO228IJg8yHbGuxRmPosOajKTwuxbrid7snKa6WUAUhfcbK6nJ0bVW+v+p0oCsJlDz2zqEWVcmRF9/6Pfq4H5q2pX8zkFAAFWbppZ1GHf+u2IunPzrNqwf149/mKDqm3N3V5o8qWicyZQU/v53oWc5cksT7/PZugJoJmzs6JJ/nD7gqrtzR3Y0BTRyrNx0l8ZESXZFW34CVPeeecd57x9tLVctkwxRU3j8OZhVibX3+tlqxx71bltv8g5j1zLNtOhpfEWNcMLdd83NKG2HR5V978wpG78bY8vgN28akzd88KcWl/2Woa2NXPyfeX1AyTRyg51X3DAErvc/a8sKLS3bzw07FnmPz4wqO54Zlg9u3dUHWkdV+MTubU5w8qHD/kPQbc1z8bSBtm078Y6f40S4B2bmMqJTrGvoX2FdcggfTXuRfNh6fGKV1RQgyg+ZAKjFhcXvWj0DGfYyeLCfDr8fNcRdfmprzug9vaav1ZHm3bnlV8+tABmCH0+eeSStr59XG3YPapuWTvkCigADcPKl2pOq6aRy+rUhY/UZ5/H9/3WS+/8zhnabiobU3c/3am+t3rQna4HB9X9L4yoHVWjamhkIiu+NfdPOUs3RPPR/TVV81nlFYbna9euTa1NC9PGE5OT6s596WvodBrl+mDnTM60MunCsD7sKKkUZj4Bi6KDGqo5oMZ+tWwce/4weKJChxEqrzin9z6UNqt4/tXb88rPq5yg8BtvvDEl9FwHxc/3OUC2bteo+pdVmYDxT79ZAost5aNqT0Vr3jbPbNpV4tK+mBXY7kNdB4Yn1P66MfXYqyPqh09kgu8//HpA3f3csNpbOxZagxsYnVJrq+cUGs8Pti+qXx+YV7vbcgeJfNtET98+NB04RAbYXm7KT6OUCQvhu59fCjOf0F90UJMtU7wxstkyxVo0ZsN0Qcj2erG1XF1Z+7dpoPbOo3+ujte+nFe+XnRMTYzHkq9XeWY42gxA9aMnM0Hhp+uGnGEdYKenYxKHl0ehP6iMSQEtXqdFv5ZhMkAGoOk2vf/90KB6fNuIaunOTnvT8y/2dftgSFBrzA/UeGlwOjDHnvu5Upn5TASo8UZmpg1t7fz58358TT2jg9HRmA3LR/jO7fxlOqBd2yR+YcuP1PTYUF55m3TN9jUrbHdmeCHu6dwPvzKisEnpnR8g21w2qjr70oHMpIlhCr9COT5fl037jo5POkNQAO7v700HOGxwaHi52t9MXgyPTSqGrrnassz8/O7v3DsfqK0d6spfs+QbDkF2slKZ+URGi66pQQRaF6AWdrWzdDJALdff0cad6u3VX3UFNRaynjj8bM55u9HEiv+rq/5CTQ92RZqvW1kSdqhxzDGs60DG0PKJHSOquWs8NB0syi2ktoYGTkeTenj5Y+MT6lDnlGLd2dM1s2pf27Tq6B9XLxzItA8yzH7l0IgaGctNZjoGJ9UD5ddBhtnHxw/PqcHR3PLzqpMe/kK9/yztQwfnVPfwZCCf9Dzdrjmxhfb109ZKZeYzMaCGwR9Q4+vYQU60NDqaWwOFDTu39TZPQAPULm66Wc30t+VVhtBytH6benvVXzrlnd7160jylLzdfMDsZ+vTh5g/WDOoXq0cUQCBW5qgMHmRBLVPvs9FSwtq37aBSccGJgZz8bGP1fRMOXWsaR1zJhL04Smgvml/duDW0DuZtk5MysK/dfeC6h/JH1jc+I8Ges/+60CqlwuoSj3d0mYbRt/z09bQKOmjfnHybfuo0idCU0OQYRhj+6AtU9K5sm00Pf5c5xFnXRpr0/x+x468mBMA6GVNjI+p86/8LAWgV574b+po877883XRUg83Z4IZQzJALo0ml7RBzwulrYXR0tBO0FL0Tq5f37lvXtX3TqfqzPCaCQYd3NDcmDUNqjcvAS9gkTLR2ILyyfU5wLbhyGwKVJnQYPFt68AScOear5kuSFsrlZlPgDERoMbKZplZ8fsqjsx4Br3FzQYr5j3AKJvOxWc9XJQ0tXaPq19uSl/fBZhh9I+yHN7m2S7YzObtixbOjGdQ+77aFGxEf6IqE2i6BzLBDbsiGp0Xn6q6pzzBU0DtRzsWVU8Ew0AvGiS8c3BSAXJyH7XPuXqAm5uT/lnMr8C50eUWlghQgzBm2dDW/LZMYXOD8VE3Zlz5TY0MqDe2/FsGqGFbO1a/Le96DA6PO7N8unEcw7gXmC027s6rTJkJzXZ7jZvguYWxIBRNLag90IwEULz8e/YveObT1jOmHnjx+ksA/v325WHVP5T5Etje4m/XkvKru69rTtXd02pV5Zz66a4FZ63Zuuq5goBeEN+CnjMTim3NXLdWSjOfyFViQI1N7YAabwSTqdIB2N/Jejbe5KXwO1H1XAagibZ2/uWfqonRkZzrsfvIiPr2b6/PZmIzK68f9cxvtqPaoQU/H97RPnG8rWlzOhTnpAXRF2ZRKmATlE9d25hCU5OJFOxt2B31dNtCaIWUBaiR7vl6910AHHVU1bUUR88/adcsAGeZle5KaeYzUaDG0AObGsCGjc10MJalH0kTAi96pgY61cXN3/EENcDtWNXmtPr0DIyp0TF/wO7qH3MWmUpH/MaDg+r5spHAdGdfWZoYOb/1VjU25g1+XvWRcGyacez943hu+RqUlOXlP1YZTlPzSm+GMyvK2jbhKUN32oJ4YYef3UMTan/blGIoKtqb6f+6bE619k+ktblJSy73AyPjqrx9StX1TDqzu7nkIWnkNBS9/5XSzGeiQA1imMYH1Ny2TPEGZ+gpzE+6/1rFel9AA9QuvPB9NTXUk6rT2p0j6t7Nw6l7s457a9I7H3a0jt6lzmfG1e+PHtmi3nnkP6XoOX7kRc8y9HRu1wwRwyzW1DtFmGtOBsFm51amGfZSQ7BNjSGqmc7vHhBjv6sAGyAHv7uHxtXDFf4giiGfvPUlHyagyT2anx8d2TxjBpilLN/XjiO/Y++CerVpRo2M+r8cvcpxa99SmvlMHKjJlineFuLYZXD69Gln4zvhXo2RtPCF+h3qePXmwN/kYHeqTjc+srRwdNXWdGAbGBpTj7xy3QZEh2P4GabOk9j1Xky3671hgGmYfPQ4nOAR5efXGHqWl5c7W6L0cryuOwYm1P3l3kDz8z3z6si14aBXHl7h8FXX2mgLNCD96B8BKHyWdPQNTziaMstJ9Gdu1+urlwDQq/yw4Wj0frOyL9bnDp58FBntTBwvHJSNJJ92K7TiJ8amBjEydkcTgIF0HpgpPwyZYRu91OJVNKSfPbb61aW6MtzUN5rf+Ww47Uzqf6Ly2ZSGJvY8/BMVG3LmJRqV/uLRBSqX61xMC0197hu+Mc5XdEzmXDf4hvZ721PXtTZnhrQzXROTxbcM/YTXLLdwAzI97JFD86n4ki4XP2hhLrS09OfGB9qXWWjMDPQ5Pn5NH4zyRZaLnIRNkwhQ4xTOY8eOOR1FAMz0Dxw44HxdHfV4Of70oY8MgdZsH1aivTFDt3n/cFZ1n+prVRc23uwKahef+2c13dOUVX7Cd0wBvHii+DoRgoqGzqyn5B/WHx4dVztbptSTVbPO6v6tjVOqd2g863zcyhsZHVPwX9qCSYSq5lE1MDymGnsnFGWb6bCZ6QDmdr25bjojnZlPmPv7D7gvytXLBPjC5GXGoX3pb2Yf5F4HOz5GHueX4MOCmBmvaKD28ccfO28BNrK7Mc8M4+x8k/m53h+vfCayvHKlQU83NDKWsS9TOhM+kwEH6kaypvm1A2tcAU00tpP7V2Wdp9BNe7hN6JgCFuaekyIY4kjeSfL3114fjrJ3dsdh7xfLxtrg5R/1PROR1DOMVvjoodmcy5JJO7Mf6vcAnwU1Q8JRu3Um+V0zzo9C2Oea9jkdHT+K/KLIY+uh6xqBDmZy/exe747kVf5MZ6168+lv+oLapQ3/oGbbc3tZ0B58ESxfx5HhtDvDHK+6FDu8tXtU/etj12dHn97tTiva2+17vDUojPpR1IWX4O17goe6a6tyL4+lHX79kWdRtH++8uOWvmiaGsQg0KxgDmIez7Hh5CsQE0N96vw1ozk+9/nmGUV63X4jQKb7DD39NAQ3GgDts6/eEfhjQsMtfVAYM9FsncnX8aaPUgsPojvX570Do2lr2phAcMurtntCrTmcvlbtlh3zanPttOqJaGhMufeGGOq+3DDlSqMb3WYY7cvkjVffZGcJX/hKoisqqMEQViszhvdinoSzkdZkfLb3DDtl6IWfhGFoe89oxnE5OqDJNfsWDzVmPwTNlkdh4zNc5G2er2Nmm+Fn2HKLGQ87233PX9eqmZEmzKSJsOa+CbWvddJZP9Y1mGl/M9Nke7+rZTptKYduS+OamVE24mebr8Snfb2GoEwgJHHYKbJYdFCDEBbeyrSxgJjuw1w0unx+E93N6sLGm9JAjXvC88k337RP7b7eSQTAvHyGQGhs+ZYZRXre1NhU8nVMEjDLHQVNhchjcGhUrdl2fWb04ZeHVFdffrKZK90ML00w456Z2YPtE3nx1GuygImCOHaU5CtHevpEgBoEXblyJfW9Ah3QuGZKOdeGl3QnylanAZpobIRLnGL4Xufvm8D29fsH1K82Dald1ckANXiFgOfy/UhdAHmZccJtMXifT5mPvrIEbLRLXdtI0ejf1Xz9eKIf7VhwTi9p6BmPhB63GdCwZx7qbVzo68SAGhW/ePFixto0QI2Pq+QjgDPt1erNp/7RFdQI53k++eeatrp5JLVkwAQx7m9+dEDRecpqh9XwSHG0Abe6QRtLUNjW9MYbb+Qlsww92XrlVk7Sw1jygUkgCXT2DY1GLiPsxdUVDA5z5aScpLtEgRrMYjMtIKYzkzVM+QjO63sedAU00dZ4nk/+uaZ9bOv1YQxA8Y0HB9Sdzw4pZtcqGkbU8Ehwh/nWb9KPr9bBEeDJlTa3dPpaOq6xqeUyFJk++b4vmK/ZFqyNEsevfrc/dX22Ep545Wny7/uPD0bKMzc+lkoYB0js37/f6Yu09Ztvvpl0PHPoSxyoQRUndsgqZsCNIUqugjDXtF+99aTxcZVr3yIQUOM58XItI5d0aF5sx5Fh5SsV2GaCQUzKEoChU0qY+NKh/Tq9xM3WL69f0i7JG1tYtqD2s2emHUB7cOuCI4BoA9jnoCMbugEft7qb9SGeAP3zZe5gKXUy08Z1z5CR/aQs/8Df3jSZ0YZxlZ1NvvLtEPrg8ePHSwLQIDKRoAZhrFZmSplxPTOfnOWVy2+2ca96be/DgT/i5ZJ/rmnae4adYeXQcPb1EkADBLzKf/zVIQckvJ7nGn6gbmliAxqyXasmgLa94frRNnQYQE3ogW7ylns3H3ASoCK+Wxw9TOLi6+H6NQCp38dxTVuzINbNuP9g+azqHxqNnYZs6iVr1Zg0KCWXWFCDibOzs47qy8LMbBpjOccVUPHroFL/MB1e4ob1pXyAh6n9ubm5UPIOkEGzaGgk4rBJQM0sO4hutC8BtjBgRBzypHyv+F7hJm353LNWzQ3QJOyZI9MZvMinvHzTYu9kxJTU9WhegpdoUINoN6HPt7FKOX0YLU2vnwzp6ND8dC2IjizhgJWkE+CSZ4CI+Yx8GH6aoCZpxMd+hrtp1dKG/brBSylZxOicbfsCZkKP1I0woc/NF8CS+JJejytx9LAor9HCwmxt6hpIjraGpgYPSs1ZUMtxWBulwGeTFx0SwNDBKSi9Xxry0gFNNBoJE41IgEAAj/KZwBFQE+O/3gFkuFnZczEFnvpz2SIleQoQii806PUDmATETNr0ePq1DlhevNDj6Gmjuq7smPDV0kRbK2ubdAXotr4x9UrDpHry8Ix6oW5K1XaNucaLil7y4ZTjpG6F0uXIvC4JUGNMH2VjlXJedD46fdAQzawjaQSY5BmgAEjIPT7xTMCkTEkrAEQcbGoCagwrBYxM/87Ns6lnpgCiqYl5QQDVC2Ao23wm/BCg0+si115pdB6acSRtVP7+1nCgxiSCWea2xgnFGjQBPvGfOjKjcrHJmvl73dO+2U4Eme1bjPvEgxpjeiYKEHz7W+rUgAYdMht+3Pf8koa3ef/1dACVfs81eethZhlltUtxyA+hl8MEGV7qEwC6MDPkFKCT4ag8ZzJI2lfKv23DgGvdCKdcnSapl1ca4gJYehqpAzRx7RZHjx/FdU3XWAYoCTjpfmXHeBqte5rHfY8I31w7lRY/ClolD9YhWlATSY3QZ1qZJR3C6JXu03npjH6d2I1H0pEBMp5zL9cSXzSlsKCGIVmEHpqeKr9+WqopAgJqJvCxFopFndAQBGqSh5cvACX1Ed8ENb0s8uLeLY6kj8r3O8EDYOOAy77BkTRZv3uf/xltbInq7E9P40VvS++o2tk0odD86rvH0spxS8N60XwXV5tyUIj7xGtqvC1Yce7G9OUUNjgUThOVjp9LJxRAJA+uTW1P8jbDdT4LOKIhIfTy5SHAARual5PhqRmH8/SkfaV8N8CmPLdwaJN6eT334pWAOM+94uh1z/d6dzPDSO8jg7Y3TqTJeWvvqLOPU9fk3K73tqSnM+ls7BlTT1VPq3/bnj6EXX1oRh3u8AY3FIqozszzkos4whMPahw5xN5As6GW0/0jLw+qezYOqbDAhoYFiHh1YnjjpokJIPl1YvI1NTjyk7IkD0CGI4OuXr3qyKWAlj67yQOGm6KdyQyortHxsR1pXz9Qgy7Kdmt3oYk4bs/9AEsA0S+OW565hu1omlSm9sUX5bc2ZALTkc5wQ9YX6yZd6w2NfQPDanWl+9o4AJLTept6Rl3TR7G3Nw7QCsoz8aDGl2zkrPRcBSnJ6Q5cs1HRIQGKsLQKsLl1RjQQt3Dylk7sVRbh0CIgRhryE+1NBx6M/PJhY5n9JK1uNwPIdCfAJuEcFCrtK7TpZQvNbkCr80r4YcYTwPMCRPIgjRe/9DL8rnv7hxU/vzjyrKt/RO1rGVfYw/C5l2e6H4Wmhk3OTbvTw56tmc4on8k57J2l6BIPathssN0MDQ2V1G+y5ZCarXk1FM3P7lkCEgABrS1sXaXDkk7/AQpeeUgar+eEr956nR7ylfwE8KSsbz7YlyHz8kz8jAjXtDd5bvrQp9MG2OhxNu1L54/UR4/DNeFm2u+t9uaL3zOdHrnu6RtSe6oH1epXB9WPnhhQ/98DA4oweR6Vb2p1OhhxjU2to2/Ys9w1lcFHjHPgpEkvJgHWqZWiSzyoMbxhmGMyPen35178kXpzwz+q4UHvjqTXQQe2X24cVAOD0XcQyqOzC0jp5Wd7zcmoUXxRSr4klW35hY5vghinEetA+tuX0sE2Kvr2tUyoH+/wPiL8+dpJ375x517/iQYBSZNe1iBGcbJxMUAx8aAmW2nYH2gyPqn389Vb1Dur/rNzMsjR8vWh6daB7e7n4gE2tC1TG8qFjyzn4IDHfB0f4GGYkwsNcabpGxhSZTWD6sntg+rf1w0Gnk5c0xLPS4g67mhkWUe6kZ/dCc8emQp8+T18MFhTu2PvvBo0RkK078LC0qED+bZxodMnHtRgCMNPDMpxCnFkeQ/0qbMv/jh11NHF525U450NoWk3gY3OFRltQ9FoadAT5XS/LNuJsp755PXQlkHF8em6JuZ3DejlU16YtC09I+qV+gm1oXpavVw/oeq6RkOVCfCJNublP1Q+m5EX7VuKM5/gRUmA2sTEhGNMDtP4xY6zcOi5FKDJ0UYn9j+WITR+dAqwoVX5xQvzzLQ5hUkTFEeOepZJgnzfxJTHZEFQuYV63tg+qPjOpx+Q6c+2VuTfTnHV7UjHqLrLZ63bj3csqP0t42m8l0mCL774It+mLUr6kgA1TsRlPVNcDU++J/Y9mnf+o70d6vzz38sANU7XnWzNzi647VA8w88oeIjWzGb2qBxr3TBK50Jbp4+RPJf8JM2hhiHnrDsdvNyuAb+47J9CS74+oAV4mZoaQ9gtdRMZfKd9samVqisJUOONgd2FlefY1qL+TTaVO0A0d/j5vPJeLF+XAWiirb2268G88o66zvnkB6DNzMxEJvNsbKd90RDC0NU/MKheqJ1Qv9i7ZECnwz5SMaOau4dDpQ9TBnFerQgegq7ZFr08hqUvm3itPUPqmSNTzho5Jg+eqJxWtZ0jrvyKun0jE5SQGZUEqFEXZtv4ZdOQoeIO9KszW37igNEbG29Wo11NOZUx2tmgLjx3oyeoXV77d2qqcX9OeYeqRwxg71Uus9F8KCdKx4kQ7e3tgfwB0O4rc19MijG9sn00MA+vermF/3StN7AxA9rUHg6I3fKOI6ype1jVd7mDVdjy4mjfKGUlKK+SATXWqzFECdswYeMtHN6UBkTH9q/OqQzSiVbm5Z/afk9Oeet1qWwYVN9/fEAdaS6OhsD6JfZrRu0WFxedDfJ6Xd2uX6ibzBhG6cMqjN7tvUN587m9ezB1vLjbsJMwZqjdaCxG2LbGcfWTndeXfgDwG2umFC+BbOhhmU4c7Ru1vPjlVzKghlGabRtRDkGHezvV+ed/kAZGF5/+hhpvrcpKEBCaxYMb1Ik9v/X9Hd/7iBoa6M86bxFKBPS7jy1pDmgJLDfIVmglr1x9DPpxfCZNhqCc2OFHW5h1Vwdax3zz8MufZ7urBtSNj6Tz+dYNmRMHe6tz09KOdIyol+rG1Yu14+pw+2jebQh46cCuXzMsD6qv/pylHJw4XcquZEANJmNzwYCpN0I+1wCRm1b12p7fRFZGPvS5pUVDQ1MT7YHV7LUt2b2N3fINEwb/ebHE9Zk0tAQ/E0Nz90io02MxfoepjxkH7ezeTdfB65sPDigBru7eQfWdVdf5zrWZPui+rnNErT2ceaT3qoppB9yC0rs9r+4IPlGXdW5uac0w2pcPh3/yySeljGmlsaRDOMy6GVRjszFyuR/ralIXNt7sCmqX1v1PNdW09EGQXPKOOw3aGdtzZFU7a6owWNPx4iwbm1ecs2Icc8OaNa86MKzUtRCvayYRvPLwC2eLmrwsGFoCcnr8hraB1FKPjXvTn+nx3K67+4fUqgrvhbAPHJhVrEVzS+sXhvHfiw8S/tuDs6Hy5YXCzGepu5LS1GA2SztgvF9Dh3l2rOxxV0ATze3Ujl/lXUYYOvKJU1Gfrj18+7eDqrwuu86WTfnwXo4aikPw//jHPzrti8bmRhdgHnQmGR15b3Nuw09eCrc8OaC2V3prYfCcZRydPdnxGW1JQMbL31Qz6VpvN15IGDZEr/wknNlhie/nozBcuHAhjqYtaJ4lB2pMGNC5UJVz/Y21VqmLT3/TF9SurPkbNV27PecycqUt23R9/QOzC8ZcAAAMNUlEQVRq/Y4BZ00VGlt9a38sNKOlwXeAJ07HN1+ZEPLiw/oqf83kpzvnVVffoGd6r3yzCc+Fx6sr/OkGgO4/MJs13Y/6aH8CanftnQvMFy2tVDewm/JYcqAmb3M6WTaCqMcdbzqoju/+TeBvpmZbzmXo5RXiurGtX209GA+gQT+AJqfcmkIU5b20L9q4G98ArFt3Zy4klQ68q3HUNZ3kVdM8oJ7bk/sLUfLJ1g8zwcGMZbb5PnfEfzYYvjx8cDowX7S0Ujzl1k32Sg7UqEQU2lq2wlPq8XPRLqTOhdLSRECDtLWO3iH14IF0+xTLGfY1j3l23v1Hlo5QwmaGLbKupbDABrAI8Hr5v9wfrFFJm4hf1T6i/AAToNzjwxfyWU5aGjJUkqDG25xjvmkMaVzre3fSls4BZ4M2M6VbDvSrnj7vuG58xHhfCC1NQE3aN0gbB9wOtY2ous5hVzmgni+U9asfrrk+awmoMXt8qD47HrjxJZuwMBrV6kPBGpVbmdsbxjxnhSnXLY2EsYSGjxstFy2tZEENwtkPeujQIdXX1+fbaNJ4K9lnuCWzevgsVXhsazhthRdHlPs8BbiCfNqXle10umzbDq30N1uWDm7U6/2z9QPOGrRs84siPluS7tnnbdS/fc+CqmjzHzr70VHdPqx+XTbrHFHEwZH37J9Te5qC82PdIS+P5eRKUlOTBmAhLo3i19j22ZJGUt00oB58cUlj0zs6WsszuwdUW1em5sJXvFi39N577wnLC+ozC8oSkmzbkLpKHZk8+fXmAXW4IbN+2eYbFB/N8dWGMbX28JR6pnpSlbWkg8rB1lHXjeWA0M5G76FzULm5Pmd3CO0b17rDggqLVlhJgxqLBFkMilGZN7r9BfOgvatfPb2rP7UzQTp/ZX1mWmbD+EZEsRwHSNK+gJvZtr19/aqzO5NmiXfvpn717O5+RX0lLE5/b9No2jYlsZuxT7WtZzBFQ0v3oNpQNeVoVWhTzObWdgylnsdJo5k3JpxS3z3gJpslDWpUiI/pMkxhGGo2WqneT9VsL0hdALKHXxpwbE4mr9CAsaVduPKROnPpYzfZKUgYp69CR09vnyqv7VfrtverXzy9tISFIaZJdzHuy1pG1K27ru+7FEATnx0D3X3Z0drUNaSerp50JkSYZNh0ZFx19maXhx8v2A7FIQLYL5ebK3lQo0F4k9NAfo1YKs8m6vepq6v+Qo221xatPvCTYQnfh9jVfM4Zyn3joWF1zwtz6qWa06p94i119OyH6j8++Ty2/vDFH/6oavrfVJsOn1LfX93nehLttx8ujBYWJDvYsgTAvHw0uaB85Dm2MGYtzbxu2z2nqtry1+qwoaEBF8usEJvQXMt4WYAam91ZR4VRWwSjFP2Bvh515sVbnEXBp7b+oih1wU7JbNjx48cdEVm181jKPiVDVd3/9iOjnprcOx9+plrGLnv+qnovqpmT73vKOECql8VSDGZw0S63HYpuaNnVO5A2RMxGdtq7B9RPd2YCkAlIaF1h8j3YMqx+vsdb67u/bFY1dF4fzobJU4/Dx1SYYCvkbLZnA8f0YFmAGrx59913S96+Nl/xTGqXw5XH/krNVL8UqiPoQpvvNd+DYCivuyvvfaoG5pe0toe3H1Xfe2I8DWwALzc3duzdtHg6QMn13tbzbkmdsMf3HFfry15TgN/Q7AW1ryxa+2lF67C6Z99cajkEmtALNWMKe11YPgIwJoC53f+mfCZUno+F2HmwpXYsVF5udeDbA3xbdDm7ZQNqNBJvH9RqZnXcGjTJYUOdzer8pn9NgRp7UM9suUUN9PYUrC4M4QG1MN8e+OzzPzgamp+m1TvztgOAgKD++/H6SXXvlnnnV97xRuj+FWX7vlI36glGLOwNKyut3QPqJyE0NSYHwuTJAlw3UNTD2HIVJi8zDm2LrXQ52tF0IVpWoEbFOGyQiQPUbLNRk3y/uH9NGqDJxnq0t0LQzdCd2bCkHzszPz/vnNSST/tWtg2njgLXwUK/frluPDTfmcXU07pds30rTDu62dLM/JhRDZOXHgcwK4X21cEp1+tlB2owYmxszBF81lkxlEr6b7S1Wl145luuoHZ+03fUUEdjrHUA0LCjffDBB7nKUUHTjY6OpoAtl7Z9vib4xIz7y2ZC83xP47BiI70JPnL/cPm06ujuD5XfA8b2L8lD99dWTobKS3izkgANQVyWoEbFRPBLAdiO7f6NK6CJtra4b3VWQizCHMZncWspAZqgJ+2L5oHGFqaeepzHDwWfmPGzXfOqqzccEJH3tnr3Gcu7982pxs7B0DSGAdx9TcOh8wPQaN/ltsBW5MDNX7agRmXR2GhQprB1oU7S9Vj9fnVp/T/4ghrHJI22LK3Fi5J2tj9xOkOpaGimAMuLiyUo2fBl1cFgUEPz6ugJD2qUz6QB68lYV7bm0JTCbsf6umxoa+ocUA+UpW/W17W0NZVTqjdEnsxisxaNVQGl2r5me4e9X9agBhM48YHJg6QC21TVy+r1l28L/E3U7Miqc/h1JLRXZsHQ0pJuQwsS5JMnTzpLFLJpX4BHBwq36/uyGH768TqXZxUtQ8oE3u9vP6rWVk6ouo5grY/2ZcEyPPnsM/eZ6SC+lvLzZQ9qNA6LSNFI0ExyEbLllAZBR3sdGRlZNrNgtC+TQwy1wrTVwdZhxfINNzCTMD6KEiavuOKg4R1uHVQv1Y6prfWjzlaqMGW1tbU5IM/2tuU+y+kFvCsC1Kg8GgmaCRpKKdjZwghwtnEANLRWtNfl5qR92a8axs7GWi8BMNNndjFb3iYhPhM+tG+cR66XgtysGFCjMXhzoaGInQ27w0r5ocWgraLVLFdH+7KwlPblkIOgtt3VkD5ryWkZ6w9Pqq6evsC0QXkX8jkgLvaz5br1KRuZXVGgJowROxuqeiGFrxhlsRB5udjPpP2CfLGzobmE4XlTZ7+qbhtU3T2l95KjfVey/cxNFlYkqMEINBaWBPBjWBZG+EspDm9vhtsMR8bHx1ecfWUltC/aN+3Lx6VXqv3MgprBAQSBjdsIBuo7b71SAi4vWmUxLWBdzOn87Q1nA/d+sgf0wa0LRstEc0v7Hjt2zDGc077YUr14VkrhtC+b0lnK8uGHH0bDrGWUy4rV1PQ2/PTTT53FuuXl5c4RRqUKbmhm2M3QPov5/UZASgerusFLzv1Nq0Z1tjvXxON5nI72xZbKy4v9raXevuzhvHQpXp7F2R5x521BTeMwWg375RB+ln/wJiyFN7gOZmz6LuZQRABNY6t6qvy1NJDTn8WlpellyLXevgzdSgXc0Mx4WTGze/r06aK2r/Ayyb4FNZfWYXnAxMSEo+JjZKcDYKNKEsABuGgdzPRBXxK+BjR98n0HvAAx3f3smWknnOFoEpzevgAFL4WktS+zt9K+gFoxNe8ktFk2NFhQ8+EWq7FPnDjh2NtkaEoHwDZDJyj0D0HHNsRsFzYVli+8/fbbPjUo7CNAy2uIyTAT0EuSo32xqcJTaV8ApNDtKuWZ7cs2sOW8BCcuWbCgFpKzGGT5SAWAQgfAboVtg04QF8ihjTEMRptAI6NcykIr++KLL0JSXtxofva04lKWXrrZvmjotC/LfgR0ovbd2pdFvGhlxTQhpHOm9O4sqOXQZpx4gO1KTooAbAA76QgMB+kMCG0Q4BGHNzQaIBoDHYl8ADG+E8AzzhC7fPlyyQCZsFSGnWhp5s9No5N0xfalfZlc4OVF+7IxnJcL7ZNP+5KHtC+2W9qXj8tcuXKl5Nq32O3kVb4FNS/OZBHO7Bqgw5etsMUBVBh2y8rK0n4AFT+EWX8GeGE/4S0NgJ07d875KEapv60ZbsrEgWlny4K9RY8q7YspgvYFiLJpX0wFtC/f5wTA0LTtyv/4mtWCWny8TeXM8di8/fUf37RcCU60tbiXbRSTl9jm9LbleqW0bzH57lW2BTUvztjwSDggw86kTRJEUjmbSSI5YEEtkc2yPIiSJR5Jtp8tD07bWugcsKCmc8NeR8oB2SZVyAW2kVbAZlaSHLCgVpLNVhpEyyTBcranlUZLrCwqLaitrPYuaG0ZdtqhZ0FZbgtbzl+Tsq1bXA7IolurpRW3HVZi6VZTW4mtXoA6s5SjlNemFYBFtoiYOGBBLSbGrpRsZR2aXl9saRbQdI7Y60Jy4P8HEjaeGwYn0LgAAAAASUVORK5CYII=;" vertex="1" parent="1">
          <mxGeometry x="247.15" y="355" width="218.8" height="213.84" as="geometry" />
        </mxCell>
        <mxCell id="cAQ5icKJsvc8xCWlFpYS-6" value="&lt;b style=&quot;font-size: 16px;&quot;&gt;&lt;font style=&quot;font-size: 16px;&quot;&gt;Data Augmen&lt;/font&gt;&lt;span style=&quot;&quot;&gt;t&lt;/span&gt;&lt;/b&gt;" style="rounded=0;whiteSpace=wrap;html=1;strokeColor=none;fillColor=#f5f5f5;fontColor=#333333;" vertex="1" parent="1">
          <mxGeometry x="290.75" y="307" width="131.6" height="28" as="geometry" />
        </mxCell>
        <mxCell id="cAQ5icKJsvc8xCWlFpYS-62" value="&lt;b&gt;&lt;font style=&quot;font-size: 15px;&quot;&gt;conv&lt;/font&gt;&lt;/b&gt;" style="text;html=1;align=center;verticalAlign=middle;resizable=0;points=[];autosize=1;strokeColor=none;fillColor=none;" vertex="1" parent="1">
          <mxGeometry x="477.1" y="408" width="53" height="30" as="geometry" />
        </mxCell>
        <mxCell id="cAQ5icKJsvc8xCWlFpYS-63" value="" style="shape=cube;whiteSpace=wrap;html=1;boundedLbl=1;backgroundOutline=1;darkOpacity=0.05;darkOpacity2=0.1;fillColor=#f8cecc;strokeColor=#b85450;" vertex="1" parent="1">
          <mxGeometry x="688" y="377.38" width="67" height="131.25" as="geometry" />
        </mxCell>
        <mxCell id="cAQ5icKJsvc8xCWlFpYS-68" value="&lt;b&gt;&lt;font style=&quot;font-size: 30px;&quot;&gt;...&lt;/font&gt;&lt;/b&gt;" style="text;html=1;align=center;verticalAlign=middle;resizable=0;points=[];autosize=1;strokeColor=none;fillColor=none;" vertex="1" parent="1">
          <mxGeometry x="767" y="419.01" width="43" height="48" as="geometry" />
        </mxCell>
        <mxCell id="cAQ5icKJsvc8xCWlFpYS-69" value="&lt;b&gt;&lt;font style=&quot;font-size: 15px;&quot;&gt;CBAM&lt;/font&gt;&lt;/b&gt;" style="text;html=1;align=center;verticalAlign=middle;resizable=0;points=[];autosize=1;strokeColor=none;fillColor=none;fillStyle=dots;" vertex="1" parent="1">
          <mxGeometry x="683" y="331" width="63" height="30" as="geometry" />
        </mxCell>
        <mxCell id="cAQ5icKJsvc8xCWlFpYS-70" value="" style="edgeStyle=orthogonalEdgeStyle;rounded=0;orthogonalLoop=1;jettySize=auto;html=1;" edge="1" parent="1" source="cAQ5icKJsvc8xCWlFpYS-71" target="cAQ5icKJsvc8xCWlFpYS-72">
          <mxGeometry relative="1" as="geometry" />
        </mxCell>
        <mxCell id="cAQ5icKJsvc8xCWlFpYS-71" value="" style="shape=cube;whiteSpace=wrap;html=1;boundedLbl=1;backgroundOutline=1;darkOpacity=0.05;darkOpacity2=0.1;rotation=0;fillColor=#dae8fc;strokeColor=#6c8ebf;size=29;" vertex="1" parent="1">
          <mxGeometry x="814" y="374.13" width="116" height="134.5" as="geometry" />
        </mxCell>
        <mxCell id="cAQ5icKJsvc8xCWlFpYS-72" value="" style="shape=cube;whiteSpace=wrap;html=1;boundedLbl=1;backgroundOutline=1;darkOpacity=0.05;darkOpacity2=0.1;fillColor=#d5e8d4;strokeColor=#82b366;" vertex="1" parent="1">
          <mxGeometry x="963" y="368.25" width="33" height="146.25" as="geometry" />
        </mxCell>
        <mxCell id="cAQ5icKJsvc8xCWlFpYS-73" value="&lt;font style=&quot;font-size: 15px;&quot;&gt;&lt;b&gt;Pooling&lt;/b&gt;&lt;/font&gt;" style="text;html=1;align=center;verticalAlign=middle;resizable=0;points=[];autosize=1;strokeColor=none;fillColor=none;" vertex="1" parent="1">
          <mxGeometry x="941" y="331" width="73" height="30" as="geometry" />
        </mxCell>
        <mxCell id="cAQ5icKJsvc8xCWlFpYS-74" value="" style="edgeStyle=orthogonalEdgeStyle;rounded=0;orthogonalLoop=1;jettySize=auto;html=1;" edge="1" parent="1" source="cAQ5icKJsvc8xCWlFpYS-75" target="cAQ5icKJsvc8xCWlFpYS-76">
          <mxGeometry relative="1" as="geometry" />
        </mxCell>
        <mxCell id="cAQ5icKJsvc8xCWlFpYS-75" value="" style="shape=cube;whiteSpace=wrap;html=1;boundedLbl=1;backgroundOutline=1;darkOpacity=0.05;darkOpacity2=0.1;rotation=0;fillColor=#dae8fc;strokeColor=#6c8ebf;size=29;" vertex="1" parent="1">
          <mxGeometry x="1062" y="374.12" width="116" height="134.5" as="geometry" />
        </mxCell>
        <mxCell id="cAQ5icKJsvc8xCWlFpYS-76" value="" style="shape=cube;whiteSpace=wrap;html=1;boundedLbl=1;backgroundOutline=1;darkOpacity=0.05;darkOpacity2=0.1;fillColor=#fff2cc;strokeColor=#d6b656;" vertex="1" parent="1">
          <mxGeometry x="1229" y="376.38" width="67" height="131.25" as="geometry" />
        </mxCell>
        <mxCell id="cAQ5icKJsvc8xCWlFpYS-77" value="&lt;b&gt;&lt;font style=&quot;font-size: 30px;&quot;&gt;...&lt;/font&gt;&lt;/b&gt;" style="text;html=1;align=center;verticalAlign=middle;resizable=0;points=[];autosize=1;strokeColor=none;fillColor=none;" vertex="1" parent="1">
          <mxGeometry x="1012" y="419.01" width="43" height="48" as="geometry" />
        </mxCell>
        <mxCell id="cAQ5icKJsvc8xCWlFpYS-78" value="&lt;b&gt;&lt;font style=&quot;font-size: 15px;&quot;&gt;BAM&lt;/font&gt;&lt;/b&gt;" style="text;html=1;align=center;verticalAlign=middle;resizable=0;points=[];autosize=1;strokeColor=none;fillColor=none;fillStyle=dots;" vertex="1" parent="1">
          <mxGeometry x="1242" y="331" width="52" height="30" as="geometry" />
        </mxCell>
      </root>
    </mxGraphModel>
  </diagram>
</mxfile>
